<?xml version="1.0" standalone="no"?>
<!DOCTYPE svg PUBLIC "-//W3C//DTD SVG 20010904//EN"
 "http://www.w3.org/TR/2001/REC-SVG-20010904/DTD/svg10.dtd">
<svg version="1.0" xmlns="http://www.w3.org/2000/svg"
 width="1080.000000pt" height="1920.000000pt" viewBox="0 0 1080.000000 1920.000000"
 preserveAspectRatio="xMidYMid meet">

<g transform="translate(0.000000,1920.000000) scale(0.100000,-0.100000)"
fill="#000000" stroke="none">
<path d="M8295 12312 c-203 -172 -426 -322 -591 -399 l-59 -28 205 -24 c113
-13 206 -25 208 -26 2 -2 -6 -21 -17 -44 -25 -47 -27 -84 -6 -101 27 -23 59
-4 86 51 l25 51 148 -153 c82 -85 146 -145 143 -134 -40 131 -64 487 -50 720
6 94 10 171 10 171 -1 1 -47 -37 -102 -84z"/>
<path d="M7877 11429 c-26 -15 -199 -366 -192 -390 8 -25 50 -35 72 -18 20 17
183 345 183 368 0 10 -8 25 -18 34 -21 20 -21 20 -45 6z"/>
<path d="M3280 10990 l0 -160 245 0 245 0 0 -705 0 -705 160 0 160 0 0 705 0
705 245 0 245 0 0 160 0 160 -650 0 -650 0 0 -160z"/>
<path d="M4882 10528 c4 -691 1 -656 73 -798 80 -156 223 -272 401 -326 83
-26 285 -25 369 0 182 56 321 171 401 331 69 140 67 115 71 798 l4 617 -160 0
-160 0 -3 -602 -3 -603 -23 -50 c-30 -66 -103 -138 -166 -167 -74 -32 -220
-33 -291 0 -93 43 -163 131 -184 230 -7 35 -11 247 -11 622 l0 570 -161 0
-160 0 3 -622z"/>
<path d="M7530 10750 c-11 -11 -37 -55 -59 -97 -21 -43 -60 -114 -85 -158 -25
-44 -46 -89 -46 -101 0 -26 18 -44 47 -44 25 0 65 62 169 264 58 113 59 114
40 135 -24 26 -41 26 -66 1z"/>
<path d="M7168 10121 c-9 -3 -40 -37 -69 -76 -28 -38 -82 -107 -120 -152 -45
-54 -69 -90 -69 -107 0 -31 32 -51 59 -37 46 25 263 305 259 334 -4 25 -38 47
-60 38z"/>
<path d="M4281 9575 c-84 -16 -107 -31 -97 -68 8 -34 33 -40 92 -26 27 7 115
13 196 13 98 1 151 5 159 13 15 15 4 59 -18 68 -35 14 -257 15 -332 0z"/>
<path d="M6572 9516 c-51 -35 -123 -80 -161 -100 -78 -41 -94 -56 -89 -87 6
-43 32 -46 102 -12 77 38 195 113 254 160 43 35 54 67 30 91 -21 21 -41 13
-136 -52z"/>
<path d="M4923 9439 c-23 -8 -31 -42 -15 -65 9 -14 263 -146 323 -169 59 -22
89 -9 89 36 0 26 -5 33 -32 42 -18 7 -91 41 -163 77 -181 90 -177 89 -202 79z"/>
<path d="M3789 9355 c-119 -85 -234 -188 -237 -214 -4 -28 14 -51 40 -51 11 0
49 26 85 58 36 31 106 87 157 123 92 67 111 94 86 125 -21 25 -53 15 -131 -41z"/>
<path d="M5930 9239 c-19 -5 -96 -14 -170 -20 -74 -6 -141 -16 -147 -21 -21
-17 -15 -56 9 -69 36 -19 301 5 410 37 23 7 34 50 18 69 -14 16 -64 18 -120 4z"/>
<path d="M6531 9205 c-371 -84 -644 -344 -743 -706 -33 -121 -33 -355 1 -479
90 -336 335 -586 672 -687 87 -26 106 -28 264 -28 158 0 176 2 259 28 125 40
187 69 283 134 198 133 348 358 397 595 9 46 16 127 16 198 0 197 -41 347
-140 508 -120 194 -298 333 -523 407 -106 36 -120 38 -267 41 -111 3 -173 0
-219 -11z m371 -364 c113 -56 190 -153 223 -278 38 -146 23 -189 -207 -590
-151 -263 -194 -331 -203 -321 -27 29 -373 647 -389 692 -23 70 -21 192 4 263
24 67 90 156 145 195 22 16 67 40 100 53 53 23 71 25 160 22 90 -2 107 -6 167
-36z"/>
<path d="M6650 8649 c-81 -32 -126 -109 -118 -199 10 -100 87 -170 187 -170
62 0 89 10 135 50 97 86 68 267 -51 316 -37 16 -117 17 -153 3z"/>
<path d="M4755 9200 c-271 -43 -452 -192 -488 -404 -33 -193 84 -397 289 -503
90 -47 183 -75 326 -98 179 -28 298 -96 334 -191 21 -55 9 -106 -36 -158 -50
-57 -117 -79 -250 -84 -192 -6 -317 35 -422 140 l-60 60 -130 -87 c-116 -77
-128 -88 -116 -103 127 -164 251 -247 446 -300 86 -23 116 -26 267 -26 159 0
175 1 245 26 108 38 166 74 238 144 44 44 73 85 100 141 36 76 37 81 37 193 0
96 -4 124 -23 172 -50 125 -155 231 -295 300 -92 46 -152 63 -302 88 -216 37
-335 113 -335 216 0 102 127 164 339 164 118 0 225 -25 329 -76 41 -20 77 -32
82 -28 22 25 170 235 170 241 0 16 -147 93 -238 124 -137 48 -370 70 -507 49z"/>
<path d="M3295 8883 c-33 -36 -175 -217 -209 -267 -31 -46 -32 -50 -7 -75 27
-27 56 -17 90 33 16 22 70 93 120 156 89 111 104 143 79 168 -19 19 -45 14
-73 -15z"/>
<path d="M2823 8233 c-57 -90 -88 -144 -132 -230 -38 -72 -32 -103 18 -103 27
0 35 10 90 108 33 59 78 136 101 172 41 67 49 97 28 118 -29 29 -55 13 -105
-65z"/>
<path d="M2544 7640 c-22 -9 -51 -91 -78 -225 -36 -174 -32 -225 19 -225 34 0
41 15 58 130 9 58 28 145 42 194 14 49 24 95 21 102 -8 20 -39 32 -62 24z"/>
<path d="M2481 6896 c-9 -11 -11 -28 -6 -53 9 -50 63 -179 81 -193 18 -15 60
-5 68 16 5 14 -49 181 -73 224 -11 21 -55 24 -70 6z"/>
</g>
</svg>
